<svg xmlns="http://www.w3.org/2000/svg" viewBox="0 0 242.15 154.85"><defs><style>.cls-1{fill:#fcfcfc;}.cls-2{fill:#e6e6e6;}.cls-3,.cls-4{fill:none;stroke:#e6e6e6;stroke-linecap:round;stroke-linejoin:round;}.cls-3{stroke-width:3px;}.cls-4{stroke-width:2px;}</style></defs><g id="Warstwa_2" data-name="Warstwa 2"><g id="Warstwa_3" data-name="Warstwa 3"><circle class="cls-1" cx="76.83" cy="77.6" r="76"/><path class="cls-2" d="M153,77.6a79.7,79.7,0,0,1-5.57,29.24A77.07,77.07,0,0,1,131.23,132a74.41,74.41,0,0,1-54.4,22.84,76.5,76.5,0,0,1-29.41-6.26,79.22,79.22,0,0,1-41.3-41.7A80.53,80.53,0,0,1,1.65,92.55,77.33,77.33,0,0,1,0,77.6,76.06,76.06,0,0,1,22.09,22.86,77.73,77.73,0,0,1,47.14,5.93,76.51,76.51,0,0,1,106.47,6a74.94,74.94,0,0,1,24.8,17.12,77.47,77.47,0,0,1,16.16,25.19A79.53,79.53,0,0,1,153,77.6Zm-.3,0a72.93,72.93,0,0,0-6-28.93,75,75,0,0,0-16.79-24.11A77.82,77.82,0,0,0,105.36,8.71,75.39,75.39,0,0,0,1.65,77.6,73.3,73.3,0,0,0,35,140.28a75.08,75.08,0,0,0,41.88,12.07,77.63,77.63,0,0,0,53.07-21.68,75.35,75.35,0,0,0,16.79-24.13A72.82,72.82,0,0,0,152.68,77.6Z"/><line class="cls-3" x1="37.59" y1="108.41" x2="62.9" y2="99.97"/><line class="cls-3" x1="97.87" y1="90.14" x2="126.1" y2="80.9"/><path class="cls-3" d="M28.47,53.51H42.31a2.18,2.18,0,0,1,2.18,2.18v1.25a0,0,0,0,1,0,0H26.79a0,0,0,0,1,0,0V55.19A1.68,1.68,0,0,1,28.47,53.51Z" transform="translate(-15.42 13.84) rotate(-18.14)"/><circle class="cls-3" cx="76.44" cy="77.93" r="23.99"/><circle class="cls-3" cx="76.44" cy="77.93" r="19.42"/><circle class="cls-3" cx="104.54" cy="59.11" r="1.71"/><circle class="cls-3" cx="84.99" cy="66.41" r="2.57"/><circle class="cls-3" cx="106.67" cy="65.62" r="1.71"/><rect class="cls-3" x="93.16" y="44.61" width="16.57" height="4.57" transform="translate(-9.56 33.91) rotate(-18.14)"/><line class="cls-3" x1="89.55" y1="57.4" x2="113.98" y2="49.4"/><line class="cls-3" x1="23.87" y1="78.92" x2="54.27" y2="68.96"/><line class="cls-3" x1="22.62" y1="75.12" x2="53.02" y2="65.16"/><line class="cls-3" x1="31.04" y1="54.93" x2="31.92" y2="57.65"/><line class="cls-3" x1="34.29" y1="53.86" x2="35.18" y2="56.58"/><line class="cls-3" x1="37.55" y1="52.8" x2="38.44" y2="55.51"/><line class="cls-3" x1="40.99" y1="52.27" x2="41.7" y2="54.44"/><line class="cls-3" x1="52.19" y1="51.61" x2="74.99" y2="44.14"/><path class="cls-3" d="M52.4,51.54,44.59,54.1,27.76,59.61a14.11,14.11,0,0,0-8,6.84A13.76,13.76,0,0,0,19,77l11.53,35.19a13.76,13.76,0,0,0,17.36,8.79l77-25.22a13.75,13.75,0,0,0,8.8-17.36L122.16,43.17a13.74,13.74,0,0,0-17.36-8.79L84.22,41.12"/><path class="cls-3" d="M52.4,51.54l.22-6.28a6.69,6.69,0,0,1,4.61-6.12l16-5.24a6.7,6.7,0,0,1,7.48,2.4l3.53,4.82"/><polyline class="cls-3" points="92.99 38.24 92.06 35.41 97.13 33.74 98.06 36.58"/><line class="cls-3" x1="59.28" y1="43.88" x2="73.39" y2="39.25"/><path class="cls-4" d="M130.09,32.33c17-14.49,18-26.57,41.53-26.53s31.24,22.43,55.68,1"/><path class="cls-4" d="M132.86,42.89c17-14.48,18-26.56,41.53-26.53s31.24,22.44,55.68,1.05"/><path class="cls-4" d="M135.63,53.46c17-14.49,18-26.57,41.53-26.53S208.39,49.37,232.84,28"/><path class="cls-4" d="M138.4,64c17-14.48,18-26.56,41.53-26.53s31.23,22.44,55.68,1"/><path class="cls-4" d="M141.17,74.59c17-14.49,18-26.57,41.53-26.53s31.23,22.44,55.68,1"/><path class="cls-4" d="M143.93,85.16c17-14.49,18-26.57,41.54-26.54s31.23,22.44,55.68,1.05"/></g></g></svg>