<svg xmlns="http://www.w3.org/2000/svg" viewBox="0 0 174.12 150.26"><defs><style>.cls-1{fill:#fcfcfc;}.cls-2{fill:#ca4c25;}</style></defs><g id="Warstwa_2" data-name="Warstwa 2"><g id="Warstwa_1-2" data-name="Warstwa 1"><path class="cls-1" d="M9.42.47l9.85,26.15L29.09.47h7.66V34.59H30.84V23.34l.59-15L21.35,34.59H17.11L7.05,8.32l.59,15V34.59H1.73V.47Z"/><path class="cls-1" d="M54.23,16.64,62.09.47h6.56L57.21,22V34.59h-6V22L39.8.47h6.58Z"/><path class="cls-2" d="M98.91,18.42a20.84,20.84,0,0,1-1.74,8.8,13.1,13.1,0,0,1-5,5.82A14.58,14.58,0,0,1,77.4,33a13.39,13.39,0,0,1-5-5.78,20.34,20.34,0,0,1-1.8-8.65V16.69a20.71,20.71,0,0,1,1.77-8.81,13.29,13.29,0,0,1,5-5.85,13.57,13.57,0,0,1,7.39-2,13.73,13.73,0,0,1,7.39,2,13.13,13.13,0,0,1,5,5.77,20.67,20.67,0,0,1,1.79,8.75ZM93,16.64Q93,11,90.83,8a7.56,7.56,0,0,0-12.09,0q-2.17,3-2.22,8.52v2q0,5.63,2.19,8.7a7.09,7.09,0,0,0,6.09,3.07,7,7,0,0,0,6.06-3q2.11-3,2.12-8.77Z"/><path class="cls-2" d="M131.58,26.16,136.83.47h5.88l-7.87,34.12h-5.68L122.67,9.68,116,34.59h-5.7L102.47.47h5.88l5.3,25.64L120.16.47h5Z"/><path class="cls-2" d="M174.12,34.59h-5.93L153,10.38V34.59h-5.93V.47H153l15.25,24.3V.47h5.89Z"/><path class="cls-1" d="M7.66,79.54V92.19H1.73V58.07H14.79q5.72,0,9.08,3a10,10,0,0,1,3.36,7.88,9.69,9.69,0,0,1-3.29,7.82q-3.28,2.79-9.22,2.79Zm0-4.78h7.13a7,7,0,0,0,4.83-1.49A5.47,5.47,0,0,0,21.28,69a5.88,5.88,0,0,0-1.69-4.42A6.49,6.49,0,0,0,15,62.85H7.66Z"/><path class="cls-1" d="M64.31,92.19H58.4V77.05H43.14V92.19H37.21V58.07h5.93v14.2H58.4V58.07h5.91Z"/><path class="cls-1" d="M103.35,76a21,21,0,0,1-1.73,8.8,13.16,13.16,0,0,1-5,5.82,14.58,14.58,0,0,1-14.81,0,13.34,13.34,0,0,1-5-5.78A20.19,20.19,0,0,1,75,76.21V74.29a20.71,20.71,0,0,1,1.77-8.81,13.27,13.27,0,0,1,5-5.85,13.6,13.6,0,0,1,7.39-2,13.76,13.76,0,0,1,7.4,2,13.13,13.13,0,0,1,5,5.77,20.82,20.82,0,0,1,1.78,8.75Zm-5.93-1.78q0-5.67-2.14-8.69a7.57,7.57,0,0,0-12.1,0Q81,68.55,81,74.05v2q0,5.63,2.19,8.7a7.07,7.07,0,0,0,6.08,3.07,7,7,0,0,0,6.06-3q2.11-3,2.12-8.77Z"/><path class="cls-1" d="M136.72,62.85H126.08V92.19H120.2V62.85H109.65V58.07h27.07Z"/><path class="cls-1" d="M172.58,76a20.84,20.84,0,0,1-1.74,8.8,13.16,13.16,0,0,1-5,5.82,14.58,14.58,0,0,1-14.81,0,13.39,13.39,0,0,1-5-5.78,20.34,20.34,0,0,1-1.8-8.65V74.29A20.71,20.71,0,0,1,146,65.48a13.33,13.33,0,0,1,5-5.85,14.58,14.58,0,0,1,14.79,0,13.13,13.13,0,0,1,5,5.77,20.67,20.67,0,0,1,1.79,8.75Zm-5.93-1.78q0-5.67-2.15-8.69a7.56,7.56,0,0,0-12.09,0q-2.17,3-2.22,8.52v2q0,5.63,2.19,8.7a7.08,7.08,0,0,0,6.09,3.07,7,7,0,0,0,6.05-3q2.13-3,2.13-8.77Z"/><path class="cls-1" d="M19.57,141A4.11,4.11,0,0,0,18,137.54a18.73,18.73,0,0,0-5.71-2.46,27.33,27.33,0,0,1-6.56-2.77q-4.66-2.92-4.67-7.64a8.33,8.33,0,0,1,3.37-6.8,13.61,13.61,0,0,1,8.73-2.67,14.83,14.83,0,0,1,6.35,1.31,10.42,10.42,0,0,1,4.38,3.74,9.54,9.54,0,0,1,1.6,5.38H19.57a5.32,5.32,0,0,0-1.68-4.18,6.88,6.88,0,0,0-4.79-1.52,7.2,7.2,0,0,0-4.51,1.25A4.13,4.13,0,0,0,7,124.65a3.72,3.72,0,0,0,1.74,3.12,19.89,19.89,0,0,0,5.72,2.44,26.38,26.38,0,0,1,6.4,2.7,10.24,10.24,0,0,1,3.54,3.47A9.11,9.11,0,0,1,25.5,141a8.12,8.12,0,0,1-3.27,6.78q-3.27,2.52-8.87,2.52a16.57,16.57,0,0,1-6.81-1.37,11.41,11.41,0,0,1-4.83-3.78A9.44,9.44,0,0,1,0,139.48H5.93A5.52,5.52,0,0,0,7.85,144a8.44,8.44,0,0,0,5.51,1.6A7.29,7.29,0,0,0,18,144.32,4,4,0,0,0,19.57,141Z"/><path class="cls-1" d="M60.16,120.45H49.52v29.34H43.64V120.45H33.09v-4.78H60.16Z"/><path class="cls-1" d="M96,133.62a20.84,20.84,0,0,1-1.73,8.8,13.16,13.16,0,0,1-5,5.82,14.58,14.58,0,0,1-14.81,0,13.41,13.41,0,0,1-5-5.78,20.34,20.34,0,0,1-1.79-8.65v-1.92a20.71,20.71,0,0,1,1.77-8.81,13.27,13.27,0,0,1,5-5.85,14.58,14.58,0,0,1,14.79,0,13.13,13.13,0,0,1,5,5.77A20.52,20.52,0,0,1,96,131.72Zm-5.93-1.78q0-5.67-2.14-8.69a7.56,7.56,0,0,0-12.09,0q-2.17,3-2.22,8.52v2q0,5.63,2.19,8.7a7.07,7.07,0,0,0,6.08,3.07,7,7,0,0,0,6.06-3c1.42-2,2.12-4.92,2.12-8.77Z"/><path class="cls-1" d="M119.26,136.67h-6.61v13.12h-5.93V115.67h12q5.91,0,9.12,2.65c2.14,1.77,3.21,4.32,3.21,7.67a9.64,9.64,0,0,1-1.65,5.74,10.57,10.57,0,0,1-4.61,3.55l7.67,14.21v.3H126.1Zm-6.61-4.78h6.09a6.81,6.81,0,0,0,4.69-1.51,5.27,5.27,0,0,0,1.69-4.14,5.6,5.6,0,0,0-1.56-4.24,6.62,6.62,0,0,0-4.65-1.55h-6.26Z"/><path class="cls-1" d="M151.48,131.84l7.85-16.17h6.57l-11.44,21.56v12.56h-6V137.23L137,115.67h6.59Z"/></g></g></svg>